# xmcd
#
# Track frame offsets:
#	150
#	13632
#	29740
#	51215
#	73915
#	94020
#	110980
#	124745
#	141427
#	159255
#	175575
#	193345
#	207255
#
# Disc length: 2977 seconds
#
# Revision: 1
# Processed by: cddbd v1.5.1PL0 Copyright (c) Steve Scherf et al.
# Submitted via: audiograbber 1.82.02
#
DISCID=c30b9f0d
DTITLE=Vince Hill - Love Songs
DYEAR=1900
DGENRE=
TTITLE0=I Will Always Love You
TTITLE1=Desperado
TTITLE2=Love Dies Hard
TTITLE3=Crying In The Wind
TTITLE4=Sweet Dreams
TTITLE5=Pray For Love
TTITLE6=When You Walk Through Life
TTITLE7=I Want To Know You
TTITLE8=Sweet Music Man
TTITLE9=Loving Arms
TTITLE10=It's Not Supposed To Be That Way
TTITLE11=Sea Of Heartbreak
TTITLE12=Always On My Mind
EXTD=
EXTT0=
EXTT1=
EXTT2=
EXTT3=
EXTT4=
EXTT5=
EXTT6=
EXTT7=
EXTT8=
EXTT9=
EXTT10=
EXTT11=
EXTT12=
PLAYORDER=
